<svg width="64" height="64" viewBox="0 0 64 64" fill="none" xmlns="http://www.w3.org/2000/svg">
<rect width="64" height="64" rx="8" fill="#34D399" fill-opacity="0.1"/>
<g clip-path="url(#clip0_5540_28101)">
<path d="M41.071 29.3336H42.671C42.8125 29.3336 42.9481 29.2774 43.0481 29.1774C43.1482 29.0774 43.2044 28.9417 43.2044 28.8003V27.2003C43.2044 27.0588 43.1482 26.9232 43.0481 26.8231C42.9481 26.7231 42.8125 26.6669 42.671 26.6669C42.5296 26.6669 42.3939 26.7231 42.2939 26.8231C42.1939 26.9232 42.1377 27.0588 42.1377 27.2003V28.2669H41.071C40.9296 28.2669 40.7939 28.3231 40.6939 28.4231C40.5939 28.5232 40.5377 28.6588 40.5377 28.8003C40.5377 28.9417 40.5939 29.0774 40.6939 29.1774C40.7939 29.2774 40.9296 29.3336 41.071 29.3336ZM28.524 27.2003C29.702 27.2003 30.6573 26.2451 30.6573 25.0669C30.6573 23.8888 29.702 22.9336 28.524 22.9336C27.3456 22.9336 26.3906 23.8888 26.3906 25.0669C26.3906 26.2451 27.3456 27.2003 28.524 27.2003ZM28.524 24.0003C29.113 24.0003 29.5906 24.4779 29.5906 25.0669C29.5906 25.656 29.113 26.1336 28.524 26.1336C27.9346 26.1336 27.4573 25.656 27.4573 25.0669C27.4573 24.4779 27.9346 24.0003 28.524 24.0003Z" fill="#34D399"/>
<path d="M16.8737 27.0229C17.0996 27.1396 17.3502 27.2003 17.6044 27.2C17.9357 27.2 18.2586 27.0965 18.5282 26.9041C18.7978 26.7118 19.0006 26.44 19.1084 26.1268L23.3026 26.062L22.5709 26.6667C22.4733 26.7468 22.4074 26.859 22.3848 26.9833C22.3622 27.1075 22.3845 27.2357 22.4477 27.3451L23.4444 29.0667L23.4662 31.4667H20.8044C20.7732 31.4698 20.7422 31.476 20.712 31.4854C20.4602 30.7441 19.7089 30.2937 18.9362 30.4214C18.1638 30.5489 17.5972 31.2169 17.5972 32C17.5972 32.7831 18.1638 33.4511 18.9362 33.5787C19.7089 33.7063 20.4602 33.256 20.712 32.5146C20.7422 32.5239 20.7732 32.5302 20.8044 32.5333H24.0044C24.1466 32.5333 24.2831 32.4765 24.3831 32.3755C24.4327 32.3255 24.472 32.2662 24.4985 32.2009C24.525 32.1357 24.5384 32.0658 24.5378 31.9953L24.5133 29.2922L26.2198 28.6523C26.3341 28.7263 26.4518 28.795 26.5724 28.8581L26.9323 31.0203C26.9531 31.1449 27.0175 31.258 27.1139 31.3396C27.2104 31.4211 27.3326 31.4658 27.4589 31.4657H27.7378V34.1323H26.1378C25.9963 34.1323 25.8607 34.1885 25.7606 34.2885C25.6606 34.3886 25.6044 34.5242 25.6044 34.6657V42.4458L20.9607 47.0896C20.8861 47.1642 20.8354 47.2592 20.8148 47.3627C20.7942 47.4661 20.8048 47.5733 20.8451 47.6708C20.8855 47.7682 20.9538 47.8515 21.0415 47.9101C21.1292 47.9687 21.2323 48 21.3378 48H38.4044C38.5099 48 38.613 47.9688 38.7006 47.9101C38.7883 47.8515 38.8566 47.7682 38.8969 47.6708C38.9373 47.5734 38.9478 47.4662 38.9273 47.3627C38.9068 47.2593 38.8561 47.1642 38.7816 47.0896L35.2044 43.5125V40.681L36.3984 38.6922C38.4131 39.9078 39.631 40.5333 40.0044 40.5333H43.2044C43.3459 40.5333 43.4815 40.4771 43.5816 40.3771C43.6816 40.2771 43.7378 40.1415 43.7378 40V37.0208L44.6477 36.1109C44.7476 36.0106 44.8039 35.8749 44.8044 35.7333V34.1333H45.5836C45.7613 34.1333 45.9362 34.0889 46.0924 34.0041C46.2486 33.9194 46.3811 33.797 46.478 33.648C46.5749 33.499 46.633 33.3282 46.647 33.151C46.6611 32.9739 46.6307 32.796 46.5586 32.6336L44.9003 28.9003C45.5296 28.1509 45.8735 27.203 45.8711 26.2245C45.8831 22.6945 43.887 19.4651 40.7245 17.8971L39.1776 17.1227C39.064 17.066 38.934 17.0518 38.8108 17.0825C38.6877 17.1132 38.5795 17.1868 38.5058 17.2901L38.2823 17.6H34.6711V16.5333C34.6711 16.3919 34.6149 16.2562 34.5149 16.1562C34.4149 16.0562 34.2792 16 34.1378 16H28.8044C28.663 16 28.5273 16.0562 28.4273 16.1562C28.3273 16.2562 28.2711 16.3919 28.2711 16.5333V18.6667H27.4574C27.331 18.6666 27.2087 18.7113 27.1123 18.793C27.0159 18.8746 26.9516 18.9878 26.9308 19.1125L26.5709 21.2742C26.4502 21.3371 26.3325 21.4058 26.2183 21.4799L24.1644 20.7104C24.0462 20.666 23.9161 20.6651 23.7973 20.7077C23.6784 20.7503 23.5786 20.8337 23.5154 20.943L22.9777 21.8747C22.9639 21.8747 22.9527 21.8667 22.9389 21.8667H19.7378V20.1685C20.4724 19.9089 20.9131 19.1575 20.7813 18.3896C20.6495 17.6213 19.9836 17.0601 19.2044 17.0601C18.425 17.0601 17.7591 17.6213 17.6274 18.3896C17.4956 19.1576 17.9365 19.9089 18.6711 20.1685V22.4C18.6711 22.5414 18.7273 22.6771 18.8273 22.7771C18.9273 22.8771 19.063 22.9333 19.2044 22.9333H22.3964C22.3724 23.0296 22.376 23.1308 22.4069 23.2251C22.4377 23.3194 22.4946 23.4032 22.5708 23.4667L24.2625 24.8597C24.2625 24.8987 24.2625 24.9385 24.2594 24.9781L19.1063 25.0575C18.9884 24.7285 18.766 24.4472 18.4732 24.2565C18.1803 24.0658 17.833 23.9762 17.4844 24.0015C17.1359 24.0267 16.8051 24.1654 16.5428 24.3963C16.2805 24.6272 16.101 24.9376 16.0318 25.2802C15.9625 25.6228 16.0073 25.9786 16.1593 26.2933C16.3114 26.608 16.5623 26.8643 16.8738 27.0229L16.8737 27.0229ZM19.2044 32.5333C19.063 32.5333 18.9273 32.4771 18.8273 32.3771C18.7273 32.2771 18.6711 32.1414 18.6711 32C18.6711 31.8585 18.7273 31.7229 18.8274 31.6229C18.9274 31.5228 19.0631 31.4667 19.2045 31.4667C19.346 31.4667 19.4816 31.5229 19.5816 31.6229C19.6816 31.7229 19.7378 31.8586 19.7378 32C19.7378 32.1414 19.6816 32.2771 19.5816 32.3771C19.4816 32.4771 19.3459 32.5333 19.2044 32.5333ZM19.2044 18.1333C19.3459 18.1333 19.4815 18.1895 19.5816 18.2895C19.6816 18.3896 19.7378 18.5252 19.7378 18.6667C19.7378 18.8081 19.6816 18.9438 19.5816 19.0438C19.4815 19.1438 19.3459 19.2 19.2044 19.2C19.063 19.2 18.9273 19.1438 18.8273 19.0438C18.7273 18.9438 18.6711 18.8081 18.6711 18.6667C18.6711 18.5252 18.7273 18.3896 18.8273 18.2895C18.9273 18.1895 19.063 18.1333 19.2044 18.1333ZM28.8044 31.4667H29.5906C29.7168 31.4667 29.8389 31.4219 29.9352 31.3404C30.0314 31.2588 30.0957 31.1458 30.1164 31.0213L30.4768 28.8591C30.5975 28.7963 30.715 28.7276 30.829 28.6534L32.8839 29.4229C33.0021 29.4673 33.1322 29.4682 33.251 29.4256C33.3699 29.3831 33.4697 29.2997 33.5328 29.1903L33.7587 28.8H36.2712C36.3105 28.7969 36.3494 28.789 36.3868 28.7765L37.3378 30.0443V30.9333H35.2045V32H36.435L35.0066 32.5711C34.9076 32.6106 34.8226 32.679 34.7628 32.7674C34.703 32.8557 34.6711 32.96 34.6712 33.0667V34.1333H28.8045L28.8044 31.4667ZM34.5995 22.7903L34.3745 22.4H35.7378V24.5333H33.1836L34.4768 23.4667C34.5738 23.3865 34.6393 23.2747 34.6617 23.1509C34.6842 23.0271 34.6621 22.8994 34.5995 22.7903ZM35.7378 25.6V27.7333H34.3745L34.5995 27.343C34.6621 27.2339 34.6842 27.1062 34.6617 26.9824C34.6393 26.8587 34.5738 26.7468 34.4768 26.6667L33.1836 25.6H35.7378ZM32.1607 38.7771L34.1378 40.7541V41.0667H30.9378V35.2H32.0044V38.4C32.0044 38.5414 32.0607 38.6771 32.1607 38.7771ZM28.78 45.8667H28.8044V45.8391L30.806 43.5515C30.891 43.4542 30.9379 43.3293 30.9378 43.2V42.1333H32.0044V46.9333H27.8443L28.78 45.8667ZM22.6253 46.9333L26.5149 43.0437C26.6149 42.9437 26.6711 42.8081 26.6711 42.6667V35.2H29.8711V42.9995L28.8044 44.2188V41.6H27.7378V45.4401L26.429 46.9333H22.6253ZM37.117 46.9333H33.0711V42.1333H34.1378V43.7333C34.1378 43.8747 34.194 44.0104 34.294 44.1104L37.117 46.9333ZM34.5643 39.6737L33.0711 38.1802V35.2H34.6711V37.3333C34.6712 37.4238 34.6942 37.5127 34.738 37.5918C34.7818 37.671 34.845 37.7377 34.9216 37.7857C35.1206 37.9104 35.3003 38.0203 35.488 38.1359L34.5643 39.6737ZM39.1068 18.2805L40.2472 18.8513C43.0474 20.2393 44.8149 23.0989 44.8045 26.2245C44.8057 26.6329 44.7258 27.0375 44.5695 27.4149C44.4132 27.7923 44.1836 28.1349 43.894 28.4229C43.8178 28.4991 43.7665 28.5966 43.7468 28.7025C43.7271 28.8085 43.7399 28.9179 43.7836 29.0164L45.5836 33.0667H44.2711C44.1297 33.0667 43.994 33.1229 43.894 33.2229C43.794 33.3229 43.7378 33.4586 43.7378 33.6V35.2H43.6461C43.2378 35.2012 42.8332 35.1213 42.4559 34.965C42.0787 34.8088 41.7362 34.5792 41.4482 34.2896C41.3477 34.192 41.2129 34.1378 41.0728 34.1389C40.9327 34.1399 40.7986 34.196 40.6995 34.295C40.6005 34.3941 40.5444 34.5282 40.5433 34.6683C40.5423 34.8084 40.5964 34.9432 40.694 35.0437C41.3261 35.6778 42.1469 36.0896 43.0331 36.2172L42.8274 36.4229C42.7274 36.5229 42.6711 36.6586 42.6711 36.8V39.4667L40.055 39.4698C38.8228 38.8999 37.6331 38.2422 36.4951 37.5018L36.4924 37.4992H36.4891C36.238 37.3466 35.9862 37.1919 35.7378 37.0377V33.4276L38.0691 32.4956C38.1681 32.456 38.253 32.3876 38.3128 32.2992C38.3725 32.2109 38.4045 32.1067 38.4044 32V29.8667C38.4044 29.7513 38.367 29.6391 38.2977 29.5467L36.8044 27.5557V21.5039L39.1068 18.2805ZM29.3378 17.0667H33.6044V18.1333C33.6044 18.2748 33.6606 18.4104 33.7606 18.5105C33.8607 18.6105 33.9963 18.6667 34.1378 18.6667H37.5206L35.8375 21.0235C35.7724 21.1137 35.7375 21.2221 35.7378 21.3333H33.7587L33.5329 20.943C33.4698 20.8337 33.3699 20.7503 33.2511 20.7077C33.1323 20.6651 33.0022 20.6661 32.884 20.7104L30.831 21.48C30.7171 21.4058 30.5996 21.3371 30.479 21.2743L30.1164 19.1121C30.0957 18.9876 30.0315 18.8746 29.9352 18.793C29.8389 18.7115 29.7169 18.6667 29.5907 18.6667H29.3378L29.3378 17.0667ZM23.5974 22.9333L24.2123 21.8667L26.1063 22.5765C26.1899 22.6078 26.2801 22.6176 26.3685 22.605C26.4569 22.5924 26.5407 22.5578 26.6123 22.5044C26.8131 22.3531 27.031 22.226 27.2615 22.1257C27.3436 22.0905 27.4156 22.0351 27.4707 21.9648C27.5259 21.8945 27.5625 21.8114 27.5771 21.7232L27.9089 19.7333H29.1388L29.4706 21.7237C29.4853 21.8119 29.5218 21.895 29.577 21.9653C29.6321 22.0357 29.7041 22.0911 29.7862 22.1263C30.0166 22.2269 30.2345 22.354 30.4354 22.505C30.5069 22.5584 30.5906 22.593 30.679 22.6056C30.7673 22.6182 30.8574 22.6084 30.9409 22.5771L32.8354 21.8667L33.4498 22.9333L31.8896 24.2172C31.8206 24.2741 31.767 24.3474 31.7337 24.4304C31.7005 24.5134 31.6886 24.6034 31.6992 24.6922C31.7321 24.9411 31.7321 25.1933 31.6992 25.4422C31.6886 25.531 31.7005 25.6211 31.7338 25.7041C31.7671 25.7872 31.8206 25.8605 31.8896 25.9175L33.4498 27.2L32.8354 28.2667L30.9409 27.5568C30.8574 27.5255 30.7673 27.5157 30.679 27.5283C30.5906 27.5409 30.5069 27.5755 30.4354 27.6289C30.2345 27.78 30.0166 27.9071 29.7862 28.0076C29.7041 28.0429 29.6321 28.0982 29.577 28.1685C29.5218 28.2389 29.4853 28.322 29.4706 28.4101L29.1388 30.4H27.9084L27.5777 28.4097C27.5631 28.3215 27.5265 28.2383 27.4713 28.168C27.4162 28.0976 27.3442 28.0423 27.262 28.007C27.0315 27.9068 26.8137 27.7797 26.613 27.6283C26.5415 27.5749 26.4576 27.5403 26.3691 27.5277C26.2807 27.5151 26.1905 27.5249 26.1068 27.5563L24.2123 28.2667L23.5974 27.2L25.1576 25.9161C25.1669 25.907 25.1761 25.8971 25.1847 25.887C25.1951 25.8771 25.2047 25.8669 25.214 25.856C25.2541 25.8128 25.2865 25.763 25.3099 25.7089L25.3133 25.7029C25.3355 25.6441 25.3471 25.5818 25.3474 25.519C25.3492 25.5115 25.3508 25.5037 25.3516 25.4961C25.3516 25.4896 25.3485 25.4844 25.348 25.4779C25.3474 25.4713 25.348 25.4534 25.348 25.4412C25.3152 25.1923 25.3152 24.9401 25.348 24.6912C25.3585 24.6023 25.3465 24.5122 25.3132 24.4292C25.2798 24.3461 25.2261 24.2728 25.157 24.2159L23.5974 22.9333ZM17.1302 25.3563C17.1617 25.2933 17.2055 25.2372 17.259 25.1914C17.3125 25.1456 17.3746 25.111 17.4417 25.0896C17.5732 25.0561 17.7125 25.074 17.8312 25.1397C17.95 25.2053 18.0393 25.3137 18.0809 25.4429C18.1225 25.572 18.1133 25.7122 18.0552 25.8348C17.9972 25.9574 17.8945 26.0533 17.7682 26.1029C17.7016 26.1243 17.6313 26.1324 17.5615 26.1267C17.4917 26.121 17.4237 26.1016 17.3613 26.0696C17.299 26.0376 17.2436 25.9936 17.1983 25.9402C17.153 25.8868 17.1186 25.825 17.0972 25.7583C17.0546 25.6252 17.0665 25.4807 17.1302 25.3563Z" fill="#34D399"/>
<path d="M27.7383 37.333H28.8049V38.3997H27.7383V37.333ZM27.7383 39.4663H28.8049V40.533H27.7383V39.4663ZM30.9383 30.933H32.0049V31.9997H30.9383V30.933ZM33.0716 30.933H34.1383V31.9997H33.0716V30.933ZM37.8716 21.333H38.9383V23.4663H37.8716V21.333ZM37.8716 24.533H38.9383V25.5997H37.8716V24.533ZM37.8716 26.6663H38.9383V27.733H37.8716V26.6663Z" fill="#34D399"/>
</g>
<defs>
<clipPath id="clip0_5540_28101">
<rect width="32" height="32" fill="white" transform="translate(16 16)"/>
</clipPath>
</defs>
</svg>
